<svg xmlns="http://www.w3.org/2000/svg" viewBox="0 0 1600 900">
<defs>
  <linearGradient id="wall" x1="0" y1="0" x2="0" y2="1"><stop stop-color="#dce7ea"/><stop offset="1" stop-color="#9fb1b7"/></linearGradient>
  <linearGradient id="floor" x1="0" y1="0" x2="0" y2="1"><stop stop-color="#91a2a6"/><stop offset="1" stop-color="#34484f"/></linearGradient>
  <filter id="shadow"><feDropShadow dx="0" dy="14" stdDeviation="15" flood-opacity=".35"/></filter>
</defs>
<rect width="1600" height="620" fill="url(#wall)"/><path d="M0 620h1600v280H0z" fill="url(#floor)"/>
<path d="M0 0h1600v95H0z" fill="#d7e1e3"/><g fill="#fff" opacity=".78"><rect x="130" y="25" width="250" height="22" rx="4"/><rect x="520" y="25" width="250" height="22" rx="4"/><rect x="910" y="25" width="250" height="22" rx="4"/><rect x="1300" y="25" width="190" height="22" rx="4"/></g>
<rect x="70" y="170" width="380" height="310" rx="18" fill="#c7d4d7" stroke="#83979d" stroke-width="8"/>
<rect x="103" y="200" width="260" height="155" rx="10" fill="#07100f"/><polyline points="115,280 155,280 180,274 195,285 210,235 224,312 245,278 280,280 315,280 335,273 350,282 365,232 380,310 420,280" fill="none" stroke="#42ef8f" stroke-width="5"/><text x="115" y="230" fill="#42ef8f" font-size="35" font-family="Arial">HR 132</text>
<rect x="90" y="380" width="300" height="70" rx="8" fill="#eef4f5"/><circle cx="120" cy="415" r="16" fill="#42c8e8"/><circle cx="165" cy="415" r="16" fill="#50d994"/><circle cx="210" cy="415" r="16" fill="#f3c94c"/>
<rect x="1180" y="115" width="330" height="170" rx="8" fill="#112430"/><g font-family="Arial" fill="#fff" font-size="28" font-weight="bold"><text x="1220" y="160">CT Scan   →</text><text x="1220" y="210">MRI       →</text><text x="1220" y="260">ICU       →</text></g>
<g filter="url(#shadow)"><rect x="390" y="500" width="720" height="180" rx="40" fill="#eef3f4"/><rect x="430" y="470" width="620" height="110" rx="40" fill="#e7ecee"/><path d="M455 520c170-70 390-68 570 8v90H455z" fill="#fafafa"/><rect x="440" y="650" width="620" height="45" rx="14" fill="#243c49"/><circle cx="485" cy="710" r="45" fill="#1d2e35"/><circle cx="1015" cy="710" r="45" fill="#1d2e35"/></g>
<g filter="url(#shadow)"><rect x="1160" y="410" width="210" height="265" rx="18" fill="#b72736"/><g fill="#e5edf0"><rect x="1180" y="450" width="170" height="32" rx="5"/><rect x="1180" y="500" width="170" height="32" rx="5"/><rect x="1180" y="550" width="170" height="32" rx="5"/><rect x="1180" y="600" width="170" height="32" rx="5"/></g><rect x="1190" y="325" width="160" height="105" rx="12" fill="#0b1519"/><text x="1210" y="370" fill="#f3d75d" font-size="32" font-family="Arial">200 J</text><polyline points="1200,402 1230,402 1250,390 1270,416 1290,392 1320,402 1340,402" fill="none" stroke="#65efb3" stroke-width="3"/></g>
<g filter="url(#shadow)"><rect x="250" y="420" width="120" height="250" rx="15" fill="#e8eff1"/><rect x="264" y="450" width="92" height="80" rx="8" fill="#092029"/><text x="276" y="480" fill="#67e6ff" font-size="15" font-family="Arial">VENT</text><polyline points="270,510 285,490 300,518 315,488 330,515 348,500" fill="none" stroke="#67e6ff" stroke-width="3"/><path d="M310 670c0 0 15 40 45 64" fill="none" stroke="#69c9e5" stroke-width="14"/></g>
<g><rect x="550" y="120" width="480" height="55" rx="12" fill="#b9c8cb"/><circle cx="790" cy="200" r="92" fill="#e6eff1" stroke="#8ca0a7" stroke-width="10"/><g fill="#fff"><circle cx="750" cy="170" r="12"/><circle cx="790" cy="165" r="12"/><circle cx="830" cy="170" r="12"/><circle cx="745" cy="210" r="12"/><circle cx="790" cy="220" r="12"/><circle cx="835" cy="210" r="12"/></g></g>
<g><rect x="980" y="160" width="40" height="240" fill="#bac8cb"/><rect x="930" y="370" width="140" height="90" rx="10" fill="#dbe4e6"/><text x="953" y="423" font-size="19" fill="#30464f" font-family="Arial">X-RAY</text></g>
<g opacity=".9"><rect x="0" y="470" width="180" height="180" fill="#9eb0b5"/><g fill="#dce7ea"><rect x="18" y="495" width="145" height="30"/><rect x="18" y="540" width="145" height="30"/><rect x="18" y="585" width="145" height="30"/></g></g>
<text x="650" y="840" fill="#d7e2e4" opacity=".45" font-family="Arial" font-size="26" letter-spacing="8">HIVE SIM · RESUS 01</text>
</svg>